<svg width="248" height="386" viewBox="0 0 248 386" fill="none" xmlns="http://www.w3.org/2000/svg">
<path d="M19.1877 251.779H97.1666V375.51H19.1877V251.779Z" fill="#B2B2B2"/>
<path d="M96.8621 251.779H174.841V375.51H96.8621V251.779Z" fill="#D1D1D1"/>
<path d="M137.717 101.734L141.041 168.243L156.672 217.015H128.531L113.914 174.993L109.347 127.237L137.717 101.734Z" fill="#F7EBE7"/>
<path d="M138.503 334.199L132.844 360.564L151.851 362.822L157.256 336.863L138.503 334.199Z" fill="#FCC9A7"/>
<path d="M131.703 358.179C132.185 356.758 133.707 356.25 134.748 357.164C136.778 358.965 140.432 361.173 145.837 360.64C151.445 360.082 153.551 356.783 154.363 354.398C154.794 353.154 155.987 352.52 157.053 353.053L191.081 370.156C193.137 371.196 194.761 373.125 195.573 375.536C196.334 377.794 194.811 380.23 192.68 380.179L133.885 378.555C131.576 378.504 129.799 376.221 130.002 373.582L130.967 360.64C130.992 360.437 131.017 360.209 131.094 360.006L131.703 358.179Z" fill="#1F252A"/>
<path d="M138.833 206.713H182.961C182.961 206.713 209.834 205.215 211.432 227.267C213.031 249.318 172.024 312.401 165.604 346.1L128.708 343.055L155.276 251.424L89.1987 251.805C84.3012 251.83 79.4292 251.12 74.8108 249.521C61.9455 245.055 42.3048 238.66 53.0132 203.236L138.833 206.713Z" fill="#092330"/>
<path d="M104.779 334.3L95.7962 365.817L114.803 368.075L123.532 336.965L104.779 334.3Z" fill="#FCC9A7"/>
<path d="M94.6544 363.431C95.1366 362.01 96.659 361.503 97.6994 362.416C99.7294 364.218 103.383 366.426 108.788 365.893C114.396 365.335 116.503 362.036 117.315 359.651C117.746 358.407 118.939 357.773 120.005 358.306L154.033 375.409C156.088 376.449 157.712 378.378 158.524 380.788C159.286 383.047 157.763 385.483 155.632 385.432L95.8216 383.808C93.5124 383.757 91.7362 381.473 91.9392 378.834L93.9439 365.893C93.9692 365.69 93.9946 365.462 94.0707 365.259L94.6544 363.431Z" fill="#1F252A"/>
<path d="M86.1029 75.5976C85.1133 76.5618 40.833 87.8539 40.833 87.8539L50.298 113.001L98.7144 109.347L86.1029 75.5976Z" fill="#F7EBE7"/>
<path d="M104.373 81.6623C104.373 81.6623 133.225 92.1931 137.717 101.734C136.169 115.209 131.423 128.176 123.608 139.265C114.016 152.866 102.165 176.237 104.348 206.713H20.9386C20.9386 206.713 25.43 120.969 50.1204 88.0569L104.373 81.6623Z" fill="#F7EBE7"/>
<path d="M94.9081 95.2635C86.7118 93.5887 81.4337 85.5955 83.1085 77.3992L88.0061 53.4194L117.67 59.4841L112.772 83.4639C111.098 91.6602 103.104 96.9383 94.9081 95.2635Z" fill="#FCC9A7"/>
<path d="M85.976 61.7932C85.976 61.7932 89.0972 81.2309 104.221 82.3981C117.467 83.4131 116.198 64.2547 116.198 64.2547L85.976 61.7932Z" fill="#F4BE9A"/>
<path d="M103.028 71.7404L100.415 71.1314C87.2955 68.0864 79.1246 54.9926 82.1696 41.8989L85.6208 26.9527C88.6659 13.8336 101.759 5.66273 114.853 8.70778L117.467 9.3168C130.586 12.3619 138.757 25.4556 135.712 38.5493L132.261 53.4955C129.216 66.6146 116.122 74.7855 103.028 71.7404Z" fill="#FCC9A7"/>
<path d="M90.3913 48.1159C91.0003 49.1563 91.5841 50.7295 91.7871 53.1148C92.0154 56.1345 93.538 59.0019 96.0755 60.6767C103.358 65.4981 108.915 53.2925 119.675 55.4494C119.675 55.4494 123.887 56.0838 124.724 60.7782C125.562 65.4473 131.424 57.2764 132.718 51.6938C134.012 46.1112 134.671 79.3277 108.18 76.511C108.18 76.511 94.8066 76.0796 85.7983 62.453C84.8087 60.9559 84.2252 59.2049 84.1744 57.4033C84.0983 54.7389 84.4789 50.7042 87.0165 47.8114C87.9046 46.7456 89.6808 46.8978 90.3913 48.1159Z" fill="#1C2226"/>
<path d="M90.366 40.5794C90.366 40.5794 101.81 36.7985 99.8818 20.076C99.8818 20.076 128.302 46.974 149.364 27.2319C149.364 27.2319 139.95 24.7197 136.067 18.2744C128.987 6.52552 108.636 -9.66402 92.3452 9.06308C92.3452 9.06308 72.5269 5.99264 78.211 36.5193L90.366 40.5794Z" fill="#1C2226"/>
<path d="M90.366 40.5794C89.2749 45.2485 84.6057 48.1667 79.9366 47.1009C75.2421 46.0098 72.3495 41.3407 73.4152 36.6716C74.5064 32.0025 79.1754 29.0843 83.8445 30.1501C88.539 31.2412 91.4572 35.9103 90.366 40.5794Z" fill="#FCC9A7"/>
<path d="M104.83 94.3246L92.5736 94.553L101.151 112.316L110.413 95.2889L104.83 94.3246Z" fill="#0C2C40"/>
<path d="M82.0682 76.3842L97.8516 94.8068L87.5746 106.606L68.6698 80.6219C68.6698 80.6219 73.5166 72.8316 82.0682 76.3842Z" fill="#FFF7F3"/>
<path d="M104.83 94.3246L113.914 104.576L120.309 88.5898C120.309 88.5898 118.634 81.4085 113.407 82.7788L104.83 94.3246Z" fill="#FFF7F3"/>
<path d="M101.481 106.581C101.481 106.581 113.331 137.488 110.387 181.337L98.7145 191.995L85.0879 178.876L99.7802 104.576L101.481 106.581Z" fill="#0C2C40"/>
<path d="M79.3276 179.967L104.703 188.315L106.378 203.211L72.73 193.162L79.3276 179.967Z" fill="#FCC9A7"/>
<path d="M100.922 198.161C100.922 206.865 107.977 213.945 116.706 213.945C125.409 213.945 132.489 206.89 132.489 198.161C132.489 189.457 125.435 182.378 116.706 182.378C108.002 182.378 100.922 189.432 100.922 198.161Z" fill="#FCC9A7"/>
<path d="M104.373 206.713H148.476C148.476 206.713 175.348 205.215 176.947 227.267C178.546 249.318 134.519 316.461 128.099 350.135L91.2033 347.09L120.791 251.399L54.7133 251.779C49.8159 251.805 44.9438 251.094 40.3255 249.496C27.4601 245.03 7.8196 238.635 18.528 203.211L104.373 206.713Z" fill="#0C2C40"/>
<path d="M237.417 128.734H161.163C158.651 128.734 156.494 130.485 155.962 132.946L141.599 200.293C140.889 203.591 143.426 206.713 146.801 206.713H224.323C226.861 206.713 229.043 204.911 229.525 202.424L242.619 135.078C243.278 131.779 240.766 128.734 237.417 128.734Z" fill="#B2B2B2"/>
<path d="M241.807 128.734H165.579C163.067 128.734 160.91 130.485 160.377 132.946L146.014 200.293C145.304 203.591 147.816 206.713 151.216 206.713H228.713C231.251 206.713 233.433 204.911 233.915 202.424L247.009 135.078C247.668 131.779 245.156 128.734 241.807 128.734Z" fill="#D1D1D1"/>
<path d="M143.68 200.952H91.5839C89.9853 200.952 88.7165 202.246 88.7165 203.82C88.7165 205.418 90.0106 206.687 91.5839 206.687H144.695L143.68 200.952Z" fill="#B2B2B2"/>
<path d="M194.608 165.96C194.608 170.553 198.313 174.257 202.906 174.257C207.499 174.257 211.204 170.527 211.204 165.96C211.204 161.367 207.474 157.662 202.906 157.662C198.313 157.662 194.608 161.367 194.608 165.96Z" fill="white"/>
<path d="M59.0272 111.808L31.165 156.799L97.8516 180.601L88.7165 200.343C88.7165 200.343 31.6978 193.949 4.14005 172.709C1.60251 170.756 0.333847 167.584 0.765228 164.412C2.05938 154.262 7.59118 129.622 31.165 94.6038C35.9609 87.4733 45.5022 85.3164 52.9372 89.6302C60.6767 94.0963 63.3918 103.993 59.0272 111.808Z" fill="#F7EBE7"/>
<path d="M80.1142 174.257L31.1649 156.799L55.6523 117.239" stroke="#EADDD8" stroke-width="0.7599" stroke-miterlimit="10" stroke-linecap="round" stroke-linejoin="round"/>
<path d="M113.255 159.362L125.308 127.541" stroke="#EADDD8" stroke-width="0.7599" stroke-miterlimit="10" stroke-linecap="round" stroke-linejoin="round"/>
<path d="M79.3276 198.998C79.3276 198.998 41.8734 194.304 22.994 183.494" stroke="#EADDD8" stroke-width="0.7599" stroke-miterlimit="10" stroke-linecap="round" stroke-linejoin="round"/>
</svg>
