<svg width="497" height="120" viewBox="0 0 497 120" fill="none" xmlns="http://www.w3.org/2000/svg">
<g filter="url(#filter0_d)">
<rect x="25" y="21" width="447" height="70" rx="5" fill="white"/>
<rect x="25.5" y="21.5" width="446" height="69" rx="4.5" stroke="#D1D1D1" stroke-opacity="0.1"/>
</g>
<rect x="251" y="32" width="211" height="49" rx="5" fill="#1A75E8"/>
<path d="M295.825 62.9417L292.097 59.2141C293.113 57.9718 293.612 56.3865 293.492 54.7862C293.372 53.186 292.641 51.6931 291.451 50.6165C290.261 49.5399 288.703 48.9618 287.099 49.002C285.494 49.0421 283.967 49.6973 282.832 50.832C281.697 51.9668 281.042 53.4942 281.002 55.0985C280.962 56.7028 281.54 58.2611 282.617 59.4512C283.693 60.6412 285.186 61.3719 286.786 61.4921C288.386 61.6124 289.972 61.1129 291.214 60.0971L294.942 63.8247C295.059 63.9385 295.217 64.0014 295.381 64C295.545 63.9986 295.701 63.9329 295.817 63.8171C295.933 63.7013 295.999 63.5447 296 63.3809C296.001 63.2172 295.938 63.0595 295.825 62.9417ZM287.265 60.2608C286.277 60.2608 285.311 59.9677 284.489 59.4188C283.668 58.8698 283.027 58.0896 282.649 57.1767C282.271 56.2638 282.172 55.2593 282.365 54.2902C282.558 53.3211 283.034 52.4309 283.732 51.7322C284.431 51.0335 285.321 50.5577 286.29 50.365C287.259 50.1722 288.264 50.2711 289.177 50.6493C290.09 51.0274 290.87 51.6677 291.419 52.4893C291.968 53.3109 292.261 54.2768 292.261 55.2649C292.259 56.5894 291.732 57.8593 290.796 58.7958C289.859 59.7324 288.589 60.2593 287.265 60.2608Z" fill="white"/>
<path d="M315.328 62H313.808V56.624C313.808 55.376 313.877 54.0587 314.016 52.672L309.552 62H307.6V50.976H309.12V56.352C309.12 57.8453 309.051 59.1787 308.912 60.352L313.424 50.976H315.328V62ZM321.514 53.376C322.015 53.376 322.474 53.4507 322.89 53.6C323.306 53.7387 323.706 53.968 324.09 54.288L323.386 55.216C323.087 55.0027 322.794 54.848 322.506 54.752C322.229 54.6453 321.919 54.592 321.578 54.592C320.895 54.592 320.362 54.864 319.978 55.408C319.605 55.952 319.418 56.7573 319.418 57.824C319.418 58.8907 319.605 59.68 319.978 60.192C320.351 60.6933 320.885 60.944 321.578 60.944C321.909 60.944 322.213 60.896 322.49 60.8C322.767 60.6933 323.077 60.528 323.418 60.304L324.09 61.264C323.322 61.8827 322.463 62.192 321.514 62.192C320.373 62.192 319.471 61.808 318.81 61.04C318.159 60.272 317.834 59.2107 317.834 57.856C317.834 56.96 317.983 56.176 318.282 55.504C318.581 54.832 319.002 54.3093 319.546 53.936C320.101 53.5627 320.757 53.376 321.514 53.376ZM332.403 53.568L329.843 57.472L332.707 62H330.963L328.627 58.112H327.555V62H326.083V53.568H327.555V56.96H328.659L330.787 53.568H332.403ZM339.825 60.032C339.825 60.3733 339.884 60.6293 340.001 60.8C340.118 60.96 340.294 61.0827 340.529 61.168L340.193 62.192C339.756 62.1387 339.404 62.016 339.137 61.824C338.87 61.632 338.673 61.3333 338.545 60.928C337.98 61.7707 337.142 62.192 336.033 62.192C335.201 62.192 334.545 61.9573 334.065 61.488C333.585 61.0187 333.345 60.4053 333.345 59.648C333.345 58.752 333.665 58.064 334.305 57.584C334.956 57.104 335.873 56.864 337.057 56.864H338.353V56.24C338.353 55.6427 338.209 55.216 337.921 54.96C337.633 54.704 337.19 54.576 336.593 54.576C335.974 54.576 335.217 54.7253 334.321 55.024L333.953 53.952C334.998 53.568 335.969 53.376 336.865 53.376C337.857 53.376 338.598 53.6213 339.089 54.112C339.58 54.592 339.825 55.28 339.825 56.176V60.032ZM336.369 61.088C337.212 61.088 337.873 60.6507 338.353 59.776V57.84H337.249C335.692 57.84 334.913 58.416 334.913 59.568C334.913 60.0693 335.036 60.448 335.281 60.704C335.526 60.96 335.889 61.088 336.369 61.088ZM348.232 53.568L348.056 54.768H345.352V62H343.88V54.768H341.096V53.568H348.232ZM352.346 56.288C353.605 56.288 354.517 56.5333 355.082 57.024C355.648 57.5147 355.93 58.2133 355.93 59.12C355.93 60.0693 355.61 60.7893 354.97 61.28C354.341 61.76 353.557 62 352.618 62H349.754V53.568H351.226V56.288H352.346ZM352.49 60.848C353.088 60.848 353.546 60.7147 353.866 60.448C354.197 60.1813 354.362 59.7387 354.362 59.12C354.362 58.5333 354.208 58.1013 353.898 57.824C353.6 57.5467 353.077 57.408 352.33 57.408H351.226V60.848H352.49ZM366.687 57.424C368.116 57.5627 368.831 58.224 368.831 59.408C368.831 60.2933 368.505 60.9493 367.855 61.376C367.215 61.792 366.356 62 365.279 62H362.239V53.68C363.231 53.4773 364.153 53.376 365.007 53.376C366.052 53.376 366.879 53.5733 367.487 53.968C368.095 54.3627 368.399 54.928 368.399 55.664C368.399 56.144 368.255 56.5333 367.967 56.832C367.679 57.1307 367.252 57.328 366.687 57.424ZM365.023 54.512C364.575 54.512 364.137 54.544 363.711 54.608V56.992H365.295C365.807 56.992 366.201 56.896 366.479 56.704C366.756 56.512 366.895 56.1867 366.895 55.728C366.895 55.3013 366.74 54.992 366.431 54.8C366.121 54.608 365.652 54.512 365.023 54.512ZM365.279 60.848C365.908 60.848 366.399 60.7413 366.751 60.528C367.103 60.3147 367.279 59.9307 367.279 59.376C367.279 58.9173 367.129 58.5867 366.831 58.384C366.532 58.1813 366.025 58.08 365.311 58.08H363.711V60.848H365.279ZM376.794 60.032C376.794 60.3733 376.852 60.6293 376.97 60.8C377.087 60.96 377.263 61.0827 377.498 61.168L377.162 62.192C376.724 62.1387 376.372 62.016 376.106 61.824C375.839 61.632 375.642 61.3333 375.514 60.928C374.948 61.7707 374.111 62.192 373.002 62.192C372.17 62.192 371.514 61.9573 371.034 61.488C370.554 61.0187 370.314 60.4053 370.314 59.648C370.314 58.752 370.634 58.064 371.274 57.584C371.924 57.104 372.842 56.864 374.026 56.864H375.322V56.24C375.322 55.6427 375.178 55.216 374.89 54.96C374.602 54.704 374.159 54.576 373.562 54.576C372.943 54.576 372.186 54.7253 371.29 55.024L370.922 53.952C371.967 53.568 372.938 53.376 373.834 53.376C374.826 53.376 375.567 53.6213 376.058 54.112C376.548 54.592 376.794 55.28 376.794 56.176V60.032ZM373.338 61.088C374.18 61.088 374.842 60.6507 375.322 59.776V57.84H374.218C372.66 57.84 371.882 58.416 371.882 59.568C371.882 60.0693 372.004 60.448 372.25 60.704C372.495 60.96 372.858 61.088 373.338 61.088ZM386.137 53.568L383.577 57.472L386.441 62H384.697L382.361 58.112H381.289V62H379.817V53.568H381.289V56.96H382.393L384.521 53.568H386.137ZM393.559 60.032C393.559 60.3733 393.618 60.6293 393.735 60.8C393.853 60.96 394.029 61.0827 394.263 61.168L393.927 62.192C393.49 62.1387 393.138 62.016 392.871 61.824C392.605 61.632 392.407 61.3333 392.279 60.928C391.714 61.7707 390.877 62.192 389.767 62.192C388.935 62.192 388.279 61.9573 387.799 61.488C387.319 61.0187 387.079 60.4053 387.079 59.648C387.079 58.752 387.399 58.064 388.039 57.584C388.69 57.104 389.607 56.864 390.791 56.864H392.087V56.24C392.087 55.6427 391.943 55.216 391.655 54.96C391.367 54.704 390.925 54.576 390.327 54.576C389.709 54.576 388.951 54.7253 388.055 55.024L387.687 53.952C388.733 53.568 389.703 53.376 390.599 53.376C391.591 53.376 392.333 53.6213 392.823 54.112C393.314 54.592 393.559 55.28 393.559 56.176V60.032ZM390.103 61.088C390.946 61.088 391.607 60.6507 392.087 59.776V57.84H390.983C389.426 57.84 388.647 58.416 388.647 59.568C388.647 60.0693 388.77 60.448 389.015 60.704C389.261 60.96 389.623 61.088 390.103 61.088ZM401.559 62V58.288H398.055V62H396.583V53.568H398.055V57.104H401.559V53.568H403.031V62H401.559ZM409.139 53.376C409.64 53.376 410.099 53.4507 410.515 53.6C410.931 53.7387 411.331 53.968 411.715 54.288L411.011 55.216C410.712 55.0027 410.419 54.848 410.131 54.752C409.854 54.6453 409.544 54.592 409.203 54.592C408.52 54.592 407.987 54.864 407.603 55.408C407.23 55.952 407.043 56.7573 407.043 57.824C407.043 58.8907 407.23 59.68 407.603 60.192C407.976 60.6933 408.51 60.944 409.203 60.944C409.534 60.944 409.838 60.896 410.115 60.8C410.392 60.6933 410.702 60.528 411.043 60.304L411.715 61.264C410.947 61.8827 410.088 62.192 409.139 62.192C407.998 62.192 407.096 61.808 406.435 61.04C405.784 60.272 405.459 59.2107 405.459 57.856C405.459 56.96 405.608 56.176 405.907 55.504C406.206 54.832 406.627 54.3093 407.171 53.936C407.726 53.5627 408.382 53.376 409.139 53.376ZM420.267 62H418.812V58.192C418.812 57.552 418.833 56.944 418.876 56.368C418.918 55.792 418.956 55.4133 418.988 55.232L415.452 62H413.708V53.568H415.164V57.376C415.164 57.9413 415.142 58.528 415.1 59.136C415.057 59.7333 415.025 60.1173 415.004 60.288L418.492 53.568H420.267V62ZM429.861 62H428.405V58.192C428.405 57.552 428.427 56.944 428.469 56.368C428.512 55.792 428.549 55.4133 428.581 55.232L425.045 62H423.301V53.568H424.757V57.376C424.757 57.9413 424.736 58.528 424.693 59.136C424.651 59.7333 424.619 60.1173 424.597 60.288L428.085 53.568H429.861V62Z" fill="white"/>
<path d="M57.76 62V56.832H53.12V62H51.6V50.976H53.12V55.584H57.76V50.976H59.28V62H57.76ZM68.075 60.032C68.075 60.3733 68.1337 60.6293 68.251 60.8C68.3683 60.96 68.5443 61.0827 68.779 61.168L68.443 62.192C68.0057 62.1387 67.6537 62.016 67.387 61.824C67.1203 61.632 66.923 61.3333 66.795 60.928C66.2297 61.7707 65.3923 62.192 64.283 62.192C63.451 62.192 62.795 61.9573 62.315 61.488C61.835 61.0187 61.595 60.4053 61.595 59.648C61.595 58.752 61.915 58.064 62.555 57.584C63.2057 57.104 64.123 56.864 65.307 56.864H66.603V56.24C66.603 55.6427 66.459 55.216 66.171 54.96C65.883 54.704 65.4403 54.576 64.843 54.576C64.2243 54.576 63.467 54.7253 62.571 55.024L62.203 53.952C63.2483 53.568 64.219 53.376 65.115 53.376C66.107 53.376 66.8483 53.6213 67.339 54.112C67.8297 54.592 68.075 55.28 68.075 56.176V60.032ZM64.619 61.088C65.4617 61.088 66.123 60.6507 66.603 59.776V57.84H65.499C63.9417 57.84 63.163 58.416 63.163 59.568C63.163 60.0693 63.2857 60.448 63.531 60.704C63.7763 60.96 64.139 61.088 64.619 61.088ZM76.8901 53.568V62H75.4181V58.48C75.1088 58.768 74.7248 58.9973 74.2661 59.168C73.8181 59.328 73.3541 59.408 72.8741 59.408C72.0741 59.408 71.4715 59.1947 71.0661 58.768C70.6608 58.3307 70.4581 57.712 70.4581 56.912V53.568H71.9301V56.736C71.9301 57.2693 72.0368 57.6587 72.2501 57.904C72.4741 58.1387 72.8155 58.256 73.2741 58.256C73.6475 58.256 74.0368 58.1707 74.4421 58C74.8581 57.8293 75.1835 57.6107 75.4181 57.344V53.568H76.8901ZM84.9023 62V58.288H81.3983V62H79.9263V53.568H81.3983V57.104H84.9023V53.568H86.3743V62H84.9023ZM95.9706 62H94.5146V58.192C94.5146 57.552 94.536 56.944 94.5786 56.368C94.6213 55.792 94.6586 55.4133 94.6906 55.232L91.1546 62H89.4106V53.568H90.8666V57.376C90.8666 57.9413 90.8453 58.528 90.8026 59.136C90.76 59.7333 90.728 60.1173 90.7066 60.288L94.1946 53.568H95.9706V62ZM104.7 53.568L104.524 54.768H101.82V62H100.348V54.768H97.5644V53.568H104.7ZM112.185 57.536C112.185 57.7813 112.174 58.032 112.153 58.288H106.777C106.841 59.216 107.076 59.8987 107.481 60.336C107.886 60.7733 108.409 60.992 109.049 60.992C109.454 60.992 109.828 60.9333 110.169 60.816C110.51 60.6987 110.868 60.512 111.241 60.256L111.881 61.136C110.985 61.84 110.004 62.192 108.937 62.192C107.764 62.192 106.846 61.808 106.185 61.04C105.534 60.272 105.209 59.216 105.209 57.872C105.209 56.9973 105.348 56.224 105.625 55.552C105.913 54.8693 106.318 54.336 106.841 53.952C107.374 53.568 107.998 53.376 108.713 53.376C109.833 53.376 110.692 53.744 111.289 54.48C111.886 55.216 112.185 56.2347 112.185 57.536ZM110.729 57.104C110.729 56.272 110.564 55.6373 110.233 55.2C109.902 54.7627 109.406 54.544 108.745 54.544C107.54 54.544 106.884 55.4293 106.777 57.2H110.729V57.104ZM123.698 62V54.768H120.242V62H118.77V53.568H125.17V62H123.698ZM131.376 53.376C132.56 53.376 133.477 53.7707 134.128 54.56C134.789 55.3493 135.12 56.4213 135.12 57.776C135.12 58.6507 134.97 59.424 134.672 60.096C134.373 60.7573 133.941 61.2747 133.376 61.648C132.81 62.0107 132.138 62.192 131.36 62.192C130.176 62.192 129.253 61.7973 128.592 61.008C127.93 60.2187 127.6 59.1467 127.6 57.792C127.6 56.9173 127.749 56.1493 128.048 55.488C128.346 54.816 128.778 54.2987 129.344 53.936C129.909 53.5627 130.586 53.376 131.376 53.376ZM131.376 54.56C129.914 54.56 129.184 55.6373 129.184 57.792C129.184 59.936 129.909 61.008 131.36 61.008C132.81 61.008 133.536 59.9307 133.536 57.776C133.536 55.632 132.816 54.56 131.376 54.56ZM144.111 62H142.655V58.192C142.655 57.552 142.677 56.944 142.719 56.368C142.762 55.792 142.799 55.4133 142.831 55.232L139.295 62H137.551V53.568H139.007V57.376C139.007 57.9413 138.986 58.528 138.943 59.136C138.901 59.7333 138.869 60.1173 138.847 60.288L142.335 53.568H144.111V62ZM150.217 53.376C150.718 53.376 151.177 53.4507 151.593 53.6C152.009 53.7387 152.409 53.968 152.793 54.288L152.089 55.216C151.79 55.0027 151.497 54.848 151.209 54.752C150.932 54.6453 150.622 54.592 150.281 54.592C149.598 54.592 149.065 54.864 148.681 55.408C148.308 55.952 148.121 56.7573 148.121 57.824C148.121 58.8907 148.308 59.68 148.681 60.192C149.054 60.6933 149.588 60.944 150.281 60.944C150.612 60.944 150.916 60.896 151.193 60.8C151.47 60.6933 151.78 60.528 152.121 60.304L152.793 61.264C152.025 61.8827 151.166 62.192 150.217 62.192C149.076 62.192 148.174 61.808 147.513 61.04C146.862 60.272 146.537 59.2107 146.537 57.856C146.537 56.96 146.686 56.176 146.985 55.504C147.284 54.832 147.705 54.3093 148.249 53.936C148.804 53.5627 149.46 53.376 150.217 53.376ZM161.106 53.568L158.546 57.472L161.41 62H159.666L157.33 58.112H156.258V62H154.786V53.568H156.258V56.96H157.362L159.49 53.568H161.106Z" fill="#B2B2B2"/>
<defs>
<filter id="filter0_d" x="0" y="0" width="497" height="120" filterUnits="userSpaceOnUse" color-interpolation-filters="sRGB">
<feFlood flood-opacity="0" result="BackgroundImageFix"/>
<feColorMatrix in="SourceAlpha" type="matrix" values="0 0 0 0 0 0 0 0 0 0 0 0 0 0 0 0 0 0 127 0"/>
<feOffset dy="4"/>
<feGaussianBlur stdDeviation="12.5"/>
<feColorMatrix type="matrix" values="0 0 0 0 0.0588235 0 0 0 0 0.0666667 0 0 0 0 0.219608 0 0 0 0.1 0"/>
<feBlend mode="normal" in2="BackgroundImageFix" result="effect1_dropShadow"/>
<feBlend mode="normal" in="SourceGraphic" in2="effect1_dropShadow" result="shape"/>
</filter>
</defs>
</svg>
